<svg width="20" height="20" viewBox="0 0 20 20" fill="none" xmlns="http://www.w3.org/2000/svg">
<g opacity="0.9" clip-path="url(#clip0_13_497)">
<path d="M6.81112 6.11112C6.81112 4.34911 8.23799 2.92223 10 2.92223C11.762 2.92223 13.1889 4.34911 13.1889 6.11112C13.1889 7.87313 11.762 9.30001 10 9.30001C8.23799 9.30001 6.81112 7.87313 6.81112 6.11112ZM2.92223 14.8611C2.92223 14.4717 3.11175 14.0788 3.54723 13.6769C3.98746 13.2706 4.63073 12.904 5.39799 12.5967C6.93364 11.9815 8.78959 11.6722 10 11.6722C11.2104 11.6722 13.0664 11.9815 14.602 12.5967C15.3693 12.904 16.0126 13.2706 16.4528 13.6769C16.8883 14.0788 17.0778 14.4717 17.0778 14.8611V17.0778H2.92223V14.8611Z" stroke="#333333" stroke-width="1.4"/>
</g>
<defs>
<clipPath id="clip0_13_497">
<rect width="20" height="20" fill="white"/>
</clipPath>
</defs>
</svg>
