<svg width="20" height="21" viewBox="0 0 20 21" fill="none" xmlns="http://www.w3.org/2000/svg">
<path opacity="0.7" d="M9.72933 6.5C10.7902 6.5 11.8076 6.92143 12.5578 7.67157C13.3079 8.42172 13.7293 9.43913 13.7293 10.5C13.7293 11.5609 13.3079 12.5783 12.5578 13.3284C11.8076 14.0786 10.7902 14.5 9.72933 14.5C8.66847 14.5 7.65105 14.0786 6.9009 13.3284C6.15076 12.5783 5.72933 11.5609 5.72933 10.5C5.72933 9.43913 6.15076 8.42172 6.9009 7.67157C7.65105 6.92143 8.66847 6.5 9.72933 6.5ZM9.72933 8.5C9.1989 8.5 8.69019 8.71071 8.31512 9.08579C7.94005 9.46086 7.72933 9.96957 7.72933 10.5C7.72933 11.0304 7.94005 11.5391 8.31512 11.9142C8.69019 12.2893 9.1989 12.5 9.72933 12.5C10.2598 12.5 10.7685 12.2893 11.1435 11.9142C11.5186 11.5391 11.7293 11.0304 11.7293 10.5C11.7293 9.96957 11.5186 9.46086 11.1435 9.08579C10.7685 8.71071 10.2598 8.5 9.72933 8.5ZM7.72933 20.5C7.47933 20.5 7.26933 20.32 7.22933 20.08L6.85933 17.43C6.22933 17.18 5.68933 16.84 5.16933 16.44L2.67933 17.45C2.45933 17.53 2.18933 17.45 2.06933 17.23L0.0693316 13.77C-0.0606684 13.55 -0.000668302 13.28 0.189332 13.13L2.29933 11.47L2.22933 10.5L2.29933 9.5L0.189332 7.87C-0.000668302 7.72 -0.0606684 7.45 0.0693316 7.23L2.06933 3.77C2.18933 3.55 2.45933 3.46 2.67933 3.55L5.16933 4.55C5.68933 4.16 6.22933 3.82 6.85933 3.57L7.22933 0.92C7.26933 0.68 7.47933 0.5 7.72933 0.5H11.7293C11.9793 0.5 12.1893 0.68 12.2293 0.92L12.5993 3.57C13.2293 3.82 13.7693 4.16 14.2893 4.55L16.7793 3.55C16.9993 3.46 17.2693 3.55 17.3893 3.77L19.3893 7.23C19.5193 7.45 19.4593 7.72 19.2693 7.87L17.1593 9.5L17.2293 10.5L17.1593 11.5L19.2693 13.13C19.4593 13.28 19.5193 13.55 19.3893 13.77L17.3893 17.23C17.2693 17.45 16.9993 17.54 16.7793 17.45L14.2893 16.45C13.7693 16.84 13.2293 17.18 12.5993 17.43L12.2293 20.08C12.1893 20.32 11.9793 20.5 11.7293 20.5H7.72933ZM8.97933 2.5L8.60933 5.11C7.40933 5.36 6.34933 6 5.57933 6.89L3.16933 5.85L2.41933 7.15L4.52933 8.7C4.12933 9.87 4.12933 11.14 4.52933 12.3L2.40933 13.86L3.15933 15.16L5.58933 14.12C6.35933 15 7.40933 15.64 8.59933 15.88L8.96933 18.5H10.4893L10.8593 15.89C12.0493 15.64 13.0993 15 13.8693 14.12L16.2993 15.16L17.0493 13.86L14.9293 12.31C15.3293 11.14 15.3293 9.87 14.9293 8.7L17.0393 7.15L16.2893 5.85L13.8793 6.89C13.1093 6 12.0493 5.36 10.8493 5.12L10.4793 2.5H8.97933Z" fill="#333333"/>
</svg>
