<svg width="20" height="20" viewBox="0 0 20 20" fill="none" xmlns="http://www.w3.org/2000/svg">
<g opacity="0.7" clip-path="url(#clip0_13_494)">
<path d="M2.50002 3.2H16.6667C16.7384 3.2 16.8 3.2616 16.8 3.33333V8.33333C16.8 8.40507 16.7384 8.46667 16.6667 8.46667H2.50002C2.42829 8.46667 2.36669 8.40507 2.36669 8.33333V3.33333C2.36669 3.2616 2.42829 3.2 2.50002 3.2ZM2.50002 11.5333H16.6667C16.7384 11.5333 16.8 11.5949 16.8 11.6667V16.6667C16.8 16.7384 16.7384 16.8 16.6667 16.8H2.50002C2.42829 16.8 2.36669 16.7384 2.36669 16.6667V11.6667C2.36669 11.5949 2.42829 11.5333 2.50002 11.5333Z" stroke="#333333" stroke-width="1.4"/>
</g>
<defs>
<clipPath id="clip0_13_494">
<rect width="20" height="20" fill="white"/>
</clipPath>
</defs>
</svg>
